<svg width="98" height="32" viewBox="0 0 98 32" fill="none" xmlns="http://www.w3.org/2000/svg">
<path d="M-2.38419e-07 24.7955V1.52273H5.625V11.3636H5.93182L13.625 1.52273H20.25L12 11.9091L20.3977 24.7955H13.6705L7.875 15.6477L5.625 18.4886V24.7955H-2.38419e-07ZM23.1785 24.7955V7.34091H28.7353V24.7955H23.1785ZM25.9626 5.30682C25.1823 5.30682 24.5118 5.04924 23.9512 4.53409C23.3906 4.01136 23.1103 3.38258 23.1103 2.64773C23.1103 1.92045 23.3906 1.29924 23.9512 0.784092C24.5118 0.261364 25.1823 0 25.9626 0C26.7505 0 27.4209 0.261364 27.974 0.784092C28.5346 1.29924 28.8149 1.92045 28.8149 2.64773C28.8149 3.38258 28.5346 4.01136 27.974 4.53409C27.4209 5.04924 26.7505 5.30682 25.9626 5.30682ZM38.2633 25.0455C36.9754 25.0455 35.8049 24.7121 34.7519 24.0455C33.6989 23.3788 32.8579 22.3788 32.2292 21.0455C31.6004 19.7121 31.286 18.0568 31.286 16.0795C31.286 14.0265 31.6117 12.3371 32.2633 11.0114C32.9148 9.68561 33.767 8.70455 34.8201 8.06818C35.8807 7.43182 37.0208 7.11364 38.2405 7.11364C39.1572 7.11364 39.9413 7.27273 40.5928 7.59091C41.2443 7.90152 41.7822 8.30303 42.2064 8.79546C42.6307 9.28788 42.9526 9.79924 43.1723 10.3295H43.286V1.52273H48.8428V24.7955H43.3428V21.9659H43.1723C42.9375 22.5038 42.6042 23.0076 42.1723 23.4773C41.7405 23.947 41.1989 24.3258 40.5473 24.6136C39.9034 24.9015 39.142 25.0455 38.2633 25.0455ZM40.1951 20.7159C40.8693 20.7159 41.4451 20.5265 41.9223 20.1477C42.3996 19.7614 42.767 19.2197 43.0246 18.5227C43.2822 17.8258 43.411 17.0076 43.411 16.0682C43.411 15.1136 43.2822 14.2917 43.0246 13.6023C42.7746 12.9129 42.4072 12.3826 41.9223 12.0114C41.4451 11.6402 40.8693 11.4545 40.1951 11.4545C39.5057 11.4545 38.9223 11.6439 38.4451 12.0227C37.9678 12.4015 37.6042 12.9356 37.3542 13.625C37.1117 14.3144 36.9905 15.1288 36.9905 16.0682C36.9905 17.0076 37.1155 17.8258 37.3655 18.5227C37.6155 19.2197 37.9754 19.7614 38.4451 20.1477C38.9223 20.5265 39.5057 20.7159 40.1951 20.7159ZM58.348 25.0455C57.0601 25.0455 55.8897 24.7121 54.8366 24.0455C53.7836 23.3788 52.9427 22.3788 52.3139 21.0455C51.6851 19.7121 51.3707 18.0568 51.3707 16.0795C51.3707 14.0265 51.6965 12.3371 52.348 11.0114C52.9995 9.68561 53.8518 8.70455 54.9048 8.06818C55.9654 7.43182 57.1056 7.11364 58.3253 7.11364C59.2419 7.11364 60.026 7.27273 60.6775 7.59091C61.3291 7.90152 61.8669 8.30303 62.2912 8.79546C62.7154 9.28788 63.0374 9.79924 63.2571 10.3295H63.3707V1.52273H68.9275V24.7955H63.4275V21.9659H63.2571C63.0222 22.5038 62.6889 23.0076 62.2571 23.4773C61.8253 23.947 61.2836 24.3258 60.6321 24.6136C59.9882 24.9015 59.2268 25.0455 58.348 25.0455ZM60.2798 20.7159C60.9541 20.7159 61.5298 20.5265 62.0071 20.1477C62.4844 19.7614 62.8518 19.2197 63.1094 18.5227C63.3669 17.8258 63.4957 17.0076 63.4957 16.0682C63.4957 15.1136 63.3669 14.2917 63.1094 13.6023C62.8594 12.9129 62.4919 12.3826 62.0071 12.0114C61.5298 11.6402 60.9541 11.4545 60.2798 11.4545C59.5904 11.4545 59.0071 11.6439 58.5298 12.0227C58.0525 12.4015 57.6889 12.9356 57.4389 13.625C57.1965 14.3144 57.0753 15.1288 57.0753 16.0682C57.0753 17.0076 57.2003 17.8258 57.4503 18.5227C57.7003 19.2197 58.0601 19.7614 58.5298 20.1477C59.0071 20.5265 59.5904 20.7159 60.2798 20.7159ZM77.6146 1.52273V24.7955H72.0577V1.52273H77.6146ZM84.1652 31.3409C83.4986 31.3409 82.8698 31.2879 82.2789 31.1818C81.688 31.0833 81.1804 30.9508 80.7561 30.7841L81.9834 26.75C82.5289 26.9318 83.0213 27.0379 83.4607 27.0682C83.9077 27.0985 84.2902 27.0265 84.6084 26.8523C84.9342 26.6856 85.1842 26.3864 85.3584 25.9545L85.5743 25.4318L79.3698 7.34091H85.188L88.4039 19.7955H88.5857L91.847 7.34091H97.6993L91.1198 26.4659C90.8016 27.4205 90.3508 28.2614 89.7675 28.9886C89.1917 29.7235 88.4455 30.2992 87.5289 30.7159C86.6198 31.1326 85.4986 31.3409 84.1652 31.3409Z" fill="#615FFF"/>
</svg>
