<svg width="98" height="32" viewBox="0 0 98 32" fill="none" xmlns="http://www.w3.org/2000/svg">
<path d="M3.57628e-06 24.7954V1.52268H5.625V11.3636H5.93182L13.625 1.52268H20.25L12 11.909L20.3977 24.7954H13.6705L7.875 15.6477L5.625 18.4886V24.7954H3.57628e-06ZM23.1785 24.7954V7.34086H28.7353V24.7954H23.1785ZM25.9626 5.30677C25.1823 5.30677 24.5118 5.0492 23.9512 4.53405C23.3906 4.01132 23.1103 3.38253 23.1103 2.64768C23.1103 1.92041 23.3906 1.2992 23.9512 0.784046C24.5118 0.261318 25.1823 -4.57764e-05 25.9626 -4.57764e-05C26.7505 -4.57764e-05 27.4209 0.261318 27.974 0.784046C28.5346 1.2992 28.8149 1.92041 28.8149 2.64768C28.8149 3.38253 28.5346 4.01132 27.974 4.53405C27.4209 5.0492 26.7505 5.30677 25.9626 5.30677ZM38.2633 25.0454C36.9754 25.0454 35.8049 24.7121 34.7519 24.0454C33.6989 23.3787 32.858 22.3787 32.2292 21.0454C31.6004 19.7121 31.286 18.0568 31.286 16.0795C31.286 14.0265 31.6117 12.3371 32.2633 11.0113C32.9148 9.68556 33.767 8.7045 34.8201 8.06814C35.8807 7.43177 37.0208 7.11359 38.2405 7.11359C39.1572 7.11359 39.9413 7.27268 40.5928 7.59086C41.2443 7.90147 41.7822 8.30299 42.2064 8.79541C42.6307 9.28783 42.9526 9.7992 43.1723 10.3295H43.286V1.52268H48.8428V24.7954H43.3428V21.9659H43.1723C42.9375 22.5037 42.6042 23.0075 42.1723 23.4772C41.7405 23.9469 41.1989 24.3257 40.5473 24.6136C39.9034 24.9015 39.142 25.0454 38.2633 25.0454ZM40.1951 20.7159C40.8693 20.7159 41.4451 20.5265 41.9223 20.1477C42.3996 19.7613 42.767 19.2197 43.0246 18.5227C43.2822 17.8257 43.411 17.0075 43.411 16.0681C43.411 15.1136 43.2822 14.2916 43.0246 13.6022C42.7746 12.9128 42.4072 12.3825 41.9223 12.0113C41.4451 11.6401 40.8693 11.4545 40.1951 11.4545C39.5057 11.4545 38.9223 11.6439 38.4451 12.0227C37.9678 12.4015 37.6042 12.9356 37.3542 13.625C37.1117 14.3143 36.9905 15.1287 36.9905 16.0681C36.9905 17.0075 37.1155 17.8257 37.3655 18.5227C37.6155 19.2197 37.9754 19.7613 38.4451 20.1477C38.9223 20.5265 39.5057 20.7159 40.1951 20.7159ZM58.348 25.0454C57.0601 25.0454 55.8897 24.7121 54.8366 24.0454C53.7836 23.3787 52.9427 22.3787 52.3139 21.0454C51.6851 19.7121 51.3707 18.0568 51.3707 16.0795C51.3707 14.0265 51.6965 12.3371 52.348 11.0113C52.9995 9.68556 53.8518 8.7045 54.9048 8.06814C55.9654 7.43177 57.1056 7.11359 58.3253 7.11359C59.2419 7.11359 60.026 7.27268 60.6775 7.59086C61.3291 7.90147 61.8669 8.30299 62.2912 8.79541C62.7154 9.28783 63.0374 9.7992 63.2571 10.3295H63.3707V1.52268H68.9275V24.7954H63.4275V21.9659H63.2571C63.0222 22.5037 62.6889 23.0075 62.2571 23.4772C61.8253 23.9469 61.2836 24.3257 60.6321 24.6136C59.9882 24.9015 59.2268 25.0454 58.348 25.0454ZM60.2798 20.7159C60.9541 20.7159 61.5298 20.5265 62.0071 20.1477C62.4844 19.7613 62.8518 19.2197 63.1094 18.5227C63.3669 17.8257 63.4957 17.0075 63.4957 16.0681C63.4957 15.1136 63.3669 14.2916 63.1094 13.6022C62.8594 12.9128 62.4919 12.3825 62.0071 12.0113C61.5298 11.6401 60.9541 11.4545 60.2798 11.4545C59.5904 11.4545 59.0071 11.6439 58.5298 12.0227C58.0525 12.4015 57.6889 12.9356 57.4389 13.625C57.1965 14.3143 57.0753 15.1287 57.0753 16.0681C57.0753 17.0075 57.2003 17.8257 57.4503 18.5227C57.7003 19.2197 58.0601 19.7613 58.5298 20.1477C59.0071 20.5265 59.5904 20.7159 60.2798 20.7159ZM77.6146 1.52268V24.7954H72.0578V1.52268H77.6146ZM84.1652 31.3409C83.4986 31.3409 82.8698 31.2878 82.2789 31.1818C81.688 31.0833 81.1804 30.9507 80.7561 30.784L81.9834 26.75C82.5289 26.9318 83.0213 27.0378 83.4607 27.0681C83.9077 27.0984 84.2902 27.0265 84.6084 26.8522C84.9342 26.6856 85.1842 26.3863 85.3584 25.9545L85.5743 25.4318L79.3698 7.34086H85.188L88.4039 19.7954H88.5857L91.8471 7.34086H97.6993L91.1198 26.4659C90.8016 27.4204 90.3508 28.2613 89.7675 28.9886C89.1917 29.7234 88.4455 30.2992 87.5289 30.7159C86.6198 31.1325 85.4986 31.3409 84.1652 31.3409Z" fill="white"/>
</svg>
